<?xml version="1.0" encoding="UTF-8" standalone="no"?>
<svg
   height="128"
   viewBox="0 0 128 128"
   width="128"
   version="1.1"
   id="svg23"
   sodipodi:docname="org.gnome.Characters.svg"
   xml:space="preserve"
   inkscape:export-filename="../simple-package-tracker/simple-package-tracker/simple-package-tracker/data/simple-package-tracker.svg"
   inkscape:export-xdpi="96"
   inkscape:export-ydpi="96"
   xmlns:inkscape="http://www.inkscape.org/namespaces/inkscape"
   xmlns:sodipodi="http://sodipodi.sourceforge.net/DTD/sodipodi-0.dtd"
   xmlns="http://www.w3.org/2000/svg"
   xmlns:svg="http://www.w3.org/2000/svg"><defs
     id="defs23" /><sodipodi:namedview
     id="namedview23"
     pagecolor="#ffffff"
     bordercolor="#999999"
     borderopacity="1"
     inkscape:showpageshadow="2"
     inkscape:pageopacity="0"
     inkscape:pagecheckerboard="0"
     inkscape:deskcolor="#d1d1d1"
     showgrid="false"><inkscape:grid
       id="grid23"
       units="px"
       originx="0"
       originy="0"
       spacingx="1"
       spacingy="1"
       empcolor="#0099e5"
       empopacity="0.30196078"
       color="#0099e5"
       opacity="0.14901961"
       empspacing="5"
       enabled="true"
       visible="false" /><inkscape:page
       x="0"
       y="0"
       width="128"
       height="128"
       id="page2"
       margin="0"
       bleed="0" /></sodipodi:namedview><linearGradient
     id="a"
     gradientTransform="matrix(1.001506,0,0,0.999934,72.090378,-115.98483)"
     gradientUnits="userSpaceOnUse"
     x1="43.843597"
     x2="-60.000004"
     y1="234.00014"
     y2="234.00014"><stop
       offset="0"
       stop-color="#d5d3cf"
       id="stop1" /><stop
       offset="0.0384615"
       stop-color="#e3e2df"
       id="stop2" /><stop
       offset="0.0769231"
       stop-color="#c0bfbc"
       id="stop3" /><stop
       offset="0.923077"
       stop-color="#c0bfbc"
       id="stop4" /><stop
       offset="0.961538"
       stop-color="#e3e2df"
       id="stop5" /><stop
       offset="1"
       stop-color="#d5d3cf"
       id="stop6" /></linearGradient><radialGradient
     id="b"
     cx="-24.238829"
     cy="225.59558"
     gradientTransform="matrix(1.757743,-1e-7,4e-8,1.949585,106.60564,-334.54495)"
     gradientUnits="userSpaceOnUse"
     r="24"><stop
       offset="0"
       stop-color="#ffffff"
       id="stop7"
       style="stop-color:#ffe879;stop-opacity:1;" /><stop
       offset="1"
       stop-color="#f6f5f4"
       id="stop8"
       style="stop-color:#f6d32d;stop-opacity:1;" /></radialGradient><linearGradient
     id="c"
     gradientTransform="matrix(0,6,-12,0,95.927826,35.999986)"
     gradientUnits="userSpaceOnUse"
     x1="0"
     x2="1"
     y1="0"
     y2="0"><stop
       offset="0"
       stop-color="#c01c27"
       id="stop9" /><stop
       offset="1"
       stop-color="#e01b24"
       id="stop10" /></linearGradient><path
     d="m 20,68 h 88 c 4.41797,0 8,3.582031 8,8 v 32 c 0,4.41797 -3.58203,8 -8,8 H 20 c -4.417969,0 -8,-3.58203 -8,-8 V 76 c 0,-4.417969 3.582031,-8 8,-8 z m 0,0"
     fill="url(#a)"
     id="path10"
     style="display:inline;fill:url(#a)" /><path
     d="m 20,12 c -4.433594,0 -8,3.566406 -8,8 v 84 c 0,4.43359 3.566406,8 8,8 h 88 c 4.43359,0 8,-3.56641 8,-8 V 20 c 0,-4.433594 -3.56641,-8 -8,-8 z"
     fill="url(#b)"
     id="path11"
     style="display:inline;fill:url(#b)"
     sodipodi:nodetypes="sssssssss"
     inkscape:label="path11" /><path
     d="m 63.49674,45.078538 c -0.332156,0.06482 -0.644176,0.17598 -0.926004,0.351954 l -15.46018,9.484212 c -0.714628,0.435306 -1.147433,1.176257 -1.147433,1.972787 v 14.22632 c 0,0.79653 0.432805,1.537479 1.147433,1.97279 l 15.46018,9.48421 c 0.86561,0.52793 1.992916,0.52793 2.858525,0 l 15.460181,-9.48421 c 0.71463,-0.435311 1.147435,-1.176261 1.147435,-1.97279 v -14.22632 c 0,-0.79653 -0.432805,-1.537481 -1.147435,-1.972787 L 65.429261,45.430492 c -0.56365,-0.351954 -1.268218,-0.472358 -1.932521,-0.351954 z m 0.503259,5.168156 v 16.125007 l 12.883482,-7.90042 V 69.84493 l -12.883482,7.909681 v -11.38291 l -12.883483,-7.90042 v -0.31491 z m 0,0"
     fill="#222222"
     id="path1"
     style="stroke-width:2.47174" /></svg>
